<svg xmlns="http://www.w3.org/2000/svg" viewBox="0 0 320 80">
  <defs>
    <linearGradient id="bgLogo" x1="0%" y1="0%" x2="100%" y2="100%">
      <stop offset="0%" style="stop-color:#4A5D23"/>
      <stop offset="100%" style="stop-color:#2D4022"/>
    </linearGradient>
    <linearGradient id="textGrad" x1="0%" y1="0%" x2="0%" y2="100%">
      <stop offset="0%" style="stop-color:#f5f0e6"/>
      <stop offset="100%" style="stop-color:#d4c5a9"/>
    </linearGradient>
  </defs>

  <!-- Icon background -->
  <rect x="4" y="8" width="64" height="64" rx="8" fill="url(#bgLogo)"/>

  <!-- Toy Soldier silhouette -->
  <g transform="translate(12, 12) scale(0.00534, -0.00534) translate(0, -6000)" fill="#d4c5a9">
    <path d="M4544 5991 c-52 -13 -133 -63 -186 -115 -87 -85 -125 -194 -135 -389
l-6 -107 40 -39 c57 -54 67 -75 53 -115 -14 -42 -45 -70 -95 -86 -22 -7 -60
-25 -85 -40 -25 -16 -89 -44 -143 -64 -53 -19 -118 -47 -144 -62 -100 -58
-181 -166 -315 -419 -41 -77 -124 -225 -184 -330 -159 -275 -174 -317 -138
-388 53 -104 213 -237 345 -286 l27 -10 -5 -108 c-4 -97 -2 -115 21 -182 l26
-74 -64 -171 c-214 -568 -295 -745 -446 -971 -96 -143 -147 -239 -221 -412
-26 -62 -58 -126 -71 -142 -12 -17 -31 -41 -40 -54 -9 -13 -84 -78 -165 -143
-81 -65 -184 -150 -228 -190 -48 -43 -107 -84 -147 -103 -96 -46 -140 -108
-163 -235 -6 -31 -3 -43 16 -69 71 -98 218 -127 454 -88 433 72 991 22 1333
-121 86 -36 163 -102 257 -223 81 -102 98 -118 165 -149 159 -73 465 -85 755
-30 250 48 413 132 446 232 26 77 -24 204 -115 295 -97 97 -262 187 -341 187
-24 0 -45 9 -67 29 -32 29 -33 31 -32 108 2 115 62 289 132 381 23 30 26 44
27 120 1 77 6 97 40 172 78 177 145 414 145 517 0 118 -85 342 -260 688 -69
138 -131 273 -137 300 -6 28 -27 113 -48 190 -29 109 -36 150 -31 189 3 27 8
51 10 54 3 2 26 -14 51 -36 110 -96 427 -294 510 -317 28 -8 80 -17 116 -20
l65 -7 50 -65 c27 -35 70 -94 96 -131 53 -75 80 -90 171 -91 49 -1 62 3 82 23
13 14 33 27 45 31 11 3 23 17 26 31 3 13 10 24 15 24 6 0 24 22 41 50 17 27
39 52 50 56 10 3 30 23 45 45 14 21 31 40 37 40 6 1 47 3 91 4 44 1 96 6 116
10 23 4 84 -1 166 -14 151 -25 308 -28 316 -8 3 8 8 39 12 70 7 51 5 56 -16
71 -63 40 -305 102 -514 131 -128 17 -899 168 -1050 205 -49 12 -102 29 -117
36 -46 24 -47 37 -12 349 12 110 15 203 11 350 -6 257 -13 279 -105 344 -37
25 -78 58 -92 72 -14 14 -40 34 -58 43 -39 20 -112 84 -112 98 0 5 5 6 10 3
22 -13 51 8 84 63 19 31 46 68 60 81 14 14 26 31 26 38 0 8 16 23 35 34 40 24
42 34 19 125 -10 37 -13 69 -8 73 5 4 40 16 77 26 l68 18 -7 31 c-13 60 -95
288 -123 345 -55 108 -176 197 -301 221 -60 11 -209 12 -256 1z"/>
  </g>

  <!-- Text: armybox -->
  <text x="80" y="52" font-family="'Courier New', Courier, monospace" font-size="36" font-weight="bold" fill="url(#textGrad)" letter-spacing="2">
    armybox
  </text>

  <!-- Tagline -->
  <text x="82" y="68" font-family="'Courier New', Courier, monospace" font-size="10" fill="#8b9a6d" letter-spacing="1">
    UNIX UTILITIES IN RUST
  </text>
</svg>
